<svg id="cache_header" xmlns="http://www.w3.org/2000/svg" viewBox="0 0 80 80"><style>.st0{fill:#fff}.st1{fill:url(#SVGID_1_)}.st2,.st3{fill:none;stroke:url(#SVGID_2_)}.st3{stroke:url(#SVGID_3_)}.st4,.st5{fill:none;stroke:url(#SVGID_4_)}.st5{stroke:url(#SVGID_5_);stroke-width:3;stroke-miterlimit:10}</style><path class="st0" d="M76.3 63H3.5c-.8 0-1.5-.7-1.5-1.5V3.6c0-.8.7-1.5 1.5-1.5h72.8c.8 0 1.5.7 1.5 1.5v57.9c0 .8-.7 1.5-1.5 1.5z"/><linearGradient id="SVGID_1_" gradientUnits="userSpaceOnUse" x1="-21.733" y1="62.133" x2="90.573" y2="-32.103"><stop offset=".151" stop-color="#8077b7"/><stop offset=".257" stop-color="#7f88c0"/><stop offset=".403" stop-color="#7c9ecc"/><stop offset=".551" stop-color="#7aafd6"/><stop offset=".7" stop-color="#79bbdd"/><stop offset=".849" stop-color="#78c2e1"/><stop offset="1" stop-color="#77c5e3"/></linearGradient><path class="st1" d="M2.4 2.6h75.3V18H2.4z"/><circle class="st0" cx="12.6" cy="10.3" r="2.5"/><circle class="st0" cx="20" cy="10.3" r="2.5"/><circle class="st0" cx="27.4" cy="10.3" r="2.5"/><linearGradient id="SVGID_2_" gradientUnits="userSpaceOnUse" x1="19.802" y1="50.927" x2="31.87" y2="40.801"><stop offset="0" stop-color="#8077b7"/><stop offset="1" stop-color="#77c5e3"/></linearGradient><path class="st2" d="M16 45.9h19.7"/><linearGradient id="SVGID_3_" gradientUnits="userSpaceOnUse" x1="22.388" y1="36.408" x2="41.8" y2="20.119"><stop offset="0" stop-color="#8077b7"/><stop offset="1" stop-color="#77c5e3"/></linearGradient><path class="st3" d="M16 28.3h32.2"/><linearGradient id="SVGID_4_" gradientUnits="userSpaceOnUse" x1="22.388" y1="45.208" x2="41.8" y2="28.919"><stop offset="0" stop-color="#8077b7"/><stop offset="1" stop-color="#77c5e3"/></linearGradient><path class="st4" d="M16 37.1h32.2"/><linearGradient id="SVGID_5_" gradientUnits="userSpaceOnUse" x1="1.99" y1="64.331" x2="77.826" y2=".697"><stop offset="0" stop-color="#8077b7"/><stop offset="1" stop-color="#77c5e3"/></linearGradient><path class="st5" d="M76.3 63H3.5c-.8 0-1.5-.7-1.5-1.5V3.6c0-.8.7-1.5 1.5-1.5h72.8c.8 0 1.5.7 1.5 1.5v57.9c0 .8-.7 1.5-1.5 1.5z"/></svg>