<svg id="rocket_loader" xmlns="http://www.w3.org/2000/svg" viewBox="0 0 80 80"><style>.st0{fill:url(#SVGID_1_)}.st1{fill:url(#SVGID_2_)}.st2{fill:url(#SVGID_3_)}.st3{fill:url(#SVGID_4_)}.st4{fill:#fff}</style><linearGradient id="SVGID_1_" gradientUnits="userSpaceOnUse" x1="4.387" y1="1.221" x2="113.703" y2="110.537" gradientTransform="matrix(1 0 0 -1 0 82)"><stop offset=".149" stop-color="#8078b8"/><stop offset="1" stop-color="#78c6e4"/></linearGradient><path class="st0" d="M23.9 52.5s10.4-31.8 39.9-46L76.1 17s-7.4 29.6-39.3 46.6L23.9 52.5z"/><linearGradient id="SVGID_2_" gradientUnits="userSpaceOnUse" x1="-4.517" y1="157.197" x2="115.821" y2="36.86" gradientTransform="matrix(1 0 0 -1 0 82)"><stop offset="0" stop-color="#8078b8"/><stop offset="1" stop-color="#78c6e4"/></linearGradient><path class="st1" d="M66.3 4.7s6-3.1 13.6-4.6c0 0 0 8-2.6 13.9l-11-9.3z"/><linearGradient id="SVGID_3_" gradientUnits="userSpaceOnUse" x1="10.321" y1="47.659" x2="50.738" y2="7.243" gradientTransform="matrix(1 0 0 -1 0 82)"><stop offset="0" stop-color="#8078b8"/><stop offset="1" stop-color="#78c6e4"/></linearGradient><path class="st2" d="M8.4 55.2l14.4-5.9s3.9-10.7 8.7-16.6h-8.8L8.4 55.2z"/><linearGradient id="SVGID_4_" gradientUnits="userSpaceOnUse" x1="36.26" y1="25.47" x2="70.668" y2="-8.938" gradientTransform="matrix(1 0 0 -1 0 82)"><stop offset="0" stop-color="#8078b8"/><stop offset="1" stop-color="#78c6e4"/></linearGradient><path class="st3" d="M40.1 63.9s8.8-4.7 15.1-11.1l1.6 8.4-20.3 18.2 3.6-15.5z"/><circle class="st4" cx="62.6" cy="20.3" r="3"/><circle class="st4" cx="56.1" cy="27.3" r="3"/><circle class="st4" cx="49.6" cy="34.2" r="3"/></svg>